<svg width="120" height="21" viewBox="0 0 120 21" fill="none" xmlns="http://www.w3.org/2000/svg">
<path d="M0.535702 0.0363529C1.65652 -0.0175223 2.81688 -0.00405221 3.93967 0.0286578C4.43782 0.0363542 4.54851 0.473126 4.54061 0.877191C4.54654 3.12841 4.54061 5.38347 4.53863 7.63276C4.55049 7.99257 4.54456 8.44089 4.85886 8.6891C5.102 8.91807 5.45189 8.86227 5.76224 8.88344C8.67004 8.87574 11.5798 8.87767 14.4876 8.88344C14.8138 8.85843 15.1301 8.92 15.3792 8.67563C15.7211 8.40818 15.6915 7.82325 15.7053 7.43843C15.6935 5.37578 15.7073 3.31312 15.6935 1.25047C15.6994 0.927218 15.6915 0.565486 15.7903 0.253779C16.1185 -0.0694725 16.6047 0.0286568 17.0278 0.00364331C17.9213 0.0286568 18.8246 -0.0348404 19.7122 0.038276C20.2222 0.0979236 20.2202 0.673235 20.2479 1.05806C20.2499 3.3112 20.2499 5.57011 20.2479 7.82325C20.242 8.19268 20.1748 8.78339 19.7142 8.86035C18.6408 8.98349 17.5358 8.83149 16.4585 8.92962C16.0928 8.96618 15.7745 9.22978 15.735 9.59344C15.6757 10.265 15.6875 10.9538 15.7211 11.6253C15.7172 11.9774 15.9742 12.2814 16.33 12.3372C17.4053 12.4546 18.5123 12.2891 19.5857 12.4123C20.2578 12.5142 20.1668 13.0472 20.236 13.5648C20.2499 15.4312 20.2281 17.2995 20.2439 19.1659C20.242 19.6854 20.2558 20.2781 20.0759 20.7726C19.7063 21.0746 19.0856 20.9669 18.6309 20.9919C17.6742 20.9611 16.6581 21.0843 15.7528 20.8341C15.6005 18.4194 15.7429 15.9854 15.6796 13.5667C15.6361 13.2165 15.65 12.7817 15.308 12.5662C14.9443 12.3738 14.4955 12.3892 14.0923 12.3815C11.4474 12.3911 8.80249 12.3911 6.15759 12.3815C5.75038 12.3873 5.30561 12.3757 4.93003 12.5527C4.59793 12.7663 4.57026 13.2146 4.54851 13.5648C4.5327 15.8045 4.57026 18.0499 4.53863 20.2877C4.52282 20.6937 4.42793 20.8899 3.99107 20.9611C2.88804 21.0131 1.7435 21.0015 0.638491 20.9669C-0.0118614 20.9246 0.0533721 20.4262 0.00593002 19.9394C0.00790678 17.7536 6.0311e-07 15.562 0.00988438 13.3763C0.0494195 13.0184 0.0375573 12.5335 0.496164 12.4565C1.59129 12.2372 2.80106 12.4796 3.91793 12.3353C4.26979 12.2718 4.50898 11.962 4.51689 11.6176C4.55444 10.9499 4.56828 10.263 4.49909 9.59729C4.44572 9.24325 4.14921 8.98157 3.78944 8.93347C2.71211 8.82957 1.6071 8.97965 0.531747 8.86612C0.112676 8.80648 0.00790678 8.36201 0.00593002 8.00989C-0.00395375 5.69518 0.00988377 3.37469 0 1.05806C0.0276746 0.638601 -0.0237197 0.101773 0.535702 0.0363529Z" fill="white"/>
<path d="M25.2733 0.0495425C26.2237 -0.0466268 27.1999 0.0341573 28.1563 0.00338311C28.5221 0.0264637 28.9774 -0.0523958 29.2598 0.213031C29.4288 0.480382 29.4089 0.753504 29.4228 1.05548C29.4228 4.00018 29.4049 6.95257 29.4268 9.89535C29.4109 10.3897 29.7946 10.8109 30.3195 10.7801C33.3755 10.7993 36.4394 10.7743 39.4973 10.7917C39.8751 10.7628 40.2369 10.8494 40.5252 10.5647C40.8513 10.305 40.7837 9.91266 40.8115 9.54722C40.8036 6.716 40.8096 3.8867 40.8036 1.05548C40.8334 0.61502 40.7777 0.0995531 41.3663 0.034158C42.4976 -0.01585 43.6607 -0.00431137 44.794 0.0264628C45.301 0.0918579 45.3825 0.443837 45.3806 0.876599C45.3865 4.78684 45.3726 8.71247 45.3865 12.6227C45.3726 13.0593 45.4004 13.4517 45.1042 13.8152C44.798 14.2249 44.3546 14.3114 43.8615 14.3057C41.4021 14.3095 38.9426 14.2961 36.4831 14.3038C36.0556 14.3268 35.5466 14.3595 35.4075 14.8346C35.3319 15.2808 35.2484 16.006 35.6043 16.356C36.0874 16.5907 36.6879 16.5907 37.2088 16.7311C37.3023 17.8562 37.2605 18.991 37.2645 20.1201C37.2188 20.4413 37.3202 20.7721 36.9265 20.8971C36.3638 21.0625 35.6958 20.9625 35.1092 20.9894C34.4551 20.9567 33.7194 21.0702 33.0892 20.899C32.7134 20.7663 32.7849 20.4355 32.7193 20.1181C32.6617 18.991 32.6637 17.8466 32.8187 16.7272C33.3277 16.5849 33.9401 16.5984 34.4034 16.3464C34.7593 16.0637 34.6798 15.3847 34.644 14.9866C34.5863 14.5096 34.1688 14.3384 33.7234 14.3134C32.5285 14.273 31.3315 14.3249 30.1366 14.2999C29.8483 14.2807 29.6236 14.3153 29.4427 14.0518C29.3135 13.2093 29.4665 12.3284 29.3632 11.4802C29.2975 11.0782 28.9476 10.8532 28.548 10.8205C27.5101 10.7532 26.4563 10.8628 25.4185 10.7782C24.9592 10.707 24.8359 10.307 24.8439 9.90689C24.8339 6.96027 24.8478 4.00787 24.8379 1.05932C24.8617 0.632328 24.7941 0.253421 25.2733 0.0495425Z" fill="white"/>
<path d="M80.2439 0.000429663C84.8839 0.0196727 89.5259 0.00812746 94.1659 0.0100518C94.4616 0.0119761 94.9935 0.0312188 95.0709 0.379518C95.2138 1.04148 95.1364 1.75732 95.1503 2.43083C95.1086 2.77913 95.2138 3.2756 94.8129 3.45071C94.5489 3.53538 94.2413 3.51998 93.9654 3.5296C89.4008 3.51806 84.8144 3.52191 80.2478 3.52576C79.6842 3.52576 79.2476 3.7432 79.2 4.33589C79.1642 5.55589 79.1781 6.78745 79.194 8.00746C79.1821 8.49046 79.5731 8.90418 80.0851 8.86955C83.584 8.88302 87.0967 8.8734 90.5976 8.87147C90.9687 8.87917 91.3041 8.86762 91.6117 9.10431C91.7923 9.79514 91.6911 10.5668 91.7149 11.2788C91.6792 11.6271 91.7863 12.0793 91.439 12.3044C91.1096 12.3949 90.7365 12.3776 90.3951 12.3853C87.1424 12.3795 83.8935 12.3891 80.6408 12.3795C80.0712 12.4122 79.4163 12.3564 79.2456 13.0222C79.1384 13.969 79.2059 14.9427 79.1781 15.8952C79.198 16.282 79.1186 16.79 79.3667 17.1133C79.5889 17.4827 80.0613 17.4442 80.4423 17.4635C85.0129 17.4558 89.5854 17.4635 94.158 17.4577C94.541 17.4827 94.9657 17.4289 95.0907 17.8753C95.1919 18.7027 95.1741 19.6245 95.1086 20.4558C95.0709 20.9523 94.5668 20.9599 94.1659 20.9753C88.3371 20.9696 82.5103 20.9753 76.6795 20.9965C76.0722 20.9811 75.4669 21.0542 74.9985 20.6001C74.5381 20.1248 74.6314 19.5725 74.6135 18.9721C74.6334 17.1056 74.5996 15.2371 74.6314 13.3705C74.6413 12.9568 74.6731 12.5681 75.1494 12.4334C76.2647 12.2505 77.4595 12.4738 78.5847 12.3237C78.938 12.2467 79.1404 11.9427 79.1583 11.604C79.198 10.9497 79.2079 10.2743 79.1444 9.62195C79.0987 9.26018 78.8249 9.0004 78.4597 8.93497C77.3781 8.82144 76.2687 8.97153 75.1851 8.86762C74.7524 8.81951 74.6096 8.38077 74.6215 8.01323C74.6155 6.78745 74.6076 5.55782 74.6254 4.33204C74.6036 3.91831 74.8676 3.55462 75.3101 3.52768C76.3401 3.46033 77.386 3.57002 78.4141 3.48727C78.7931 3.44686 79.1027 3.17938 79.1305 2.80029C79.196 1.93051 79.1067 1.05495 79.188 0.183238C79.5433 0.0466124 79.8608 -0.00534325 80.2439 0.000429663Z" fill="white"/>
<path d="M100.49 0.00985074C105.044 0.00601079 109.602 0.02329 114.156 0.000250275C114.593 -0.00358968 115.004 0.0367297 115.431 0.123129C115.518 1.01016 115.435 1.90103 115.5 2.78614C115.536 3.14901 115.813 3.42165 116.18 3.47349C117.206 3.56757 118.252 3.45045 119.282 3.51957C119.659 3.55029 119.989 3.79796 119.976 4.19156C120.005 5.23219 120.013 6.30737 119.97 7.348C119.983 7.66288 119.736 7.87215 119.43 7.90479C118.657 7.96239 117.874 7.91439 117.1 7.93167C116.639 7.92399 116.115 7.96623 115.676 7.82608C115.536 7.64368 115.465 7.44016 115.461 7.21552C115.406 6.22289 115.514 5.21299 115.419 4.22228C115.342 3.68469 114.856 3.51573 114.356 3.51573C109.758 3.51381 105.101 3.51573 100.502 3.51765C100.174 3.51189 99.6596 3.50421 99.6062 3.09717C99.5292 2.27158 99.541 1.37687 99.5924 0.547445C99.6201 0.0520908 100.081 0.0156107 100.49 0.00985074Z" fill="white"/>
<path d="M56.4769 0.00284635C60.6238 0.0297939 64.7884 -0.0164013 68.9332 0.012471C69.7392 0.0278696 70.2501 0.67461 70.2185 1.43491C70.2284 4.20281 70.2145 6.97647 70.2244 9.74629C70.2185 10.1486 70.2086 10.7607 69.6659 10.803C68.6461 10.9031 67.6044 10.7818 66.5806 10.8511C66.1212 10.8781 65.6993 11.1649 65.7053 11.648C65.6597 12.5103 65.7211 13.3746 65.6518 14.2388C65.1072 14.3293 64.5626 14.3986 64.0101 14.3909C61.105 14.3774 58.1939 14.389 55.2868 14.389C54.762 14.362 54.3679 14.5949 54.354 15.1377C54.3065 16.7372 54.3639 18.3406 54.3382 19.9402C54.2946 20.3136 54.3422 20.8256 53.8768 20.9391C53.0371 21.0469 52.1677 20.9642 51.3202 20.993C50.8449 20.9699 50.2686 21.0719 49.8785 20.7621C49.7438 20.3251 49.7834 19.817 49.7775 19.3627C49.7973 17.9518 49.7617 16.5409 49.7894 15.1319C49.8032 14.7836 49.831 14.5256 50.2191 14.4101C51.3221 14.1734 52.5262 14.4121 53.649 14.2792C54.0154 14.2157 54.257 13.9232 54.255 13.5613C54.2847 12.8818 54.2966 12.187 54.2412 11.5075C54.2174 11.1014 53.8629 10.9301 53.4966 10.8646C52.4193 10.7587 51.3083 10.9262 50.2369 10.7876C49.7854 10.6683 49.8072 10.3006 49.7834 9.92338C49.7716 8.25071 49.7914 6.57804 49.7755 4.90344C49.7834 4.52618 49.7597 4.09309 49.9102 3.73893C50.1696 3.59071 50.4152 3.5118 50.7182 3.51372C51.6311 3.481 52.5519 3.55222 53.4629 3.49447C53.8827 3.47907 54.2511 3.20382 54.253 2.77459C54.3085 1.84682 54.1758 0.972957 54.4214 0.0548174C55.1105 -0.0183259 55.7819 0.00284635 56.4769 0.00284635Z" fill="white"/>
<path d="M54.8169 3.70721C55.4565 3.49133 56.2371 3.62315 56.9125 3.59067C59.3656 3.59067 61.8206 3.5964 64.2757 3.58685C64.7067 3.59258 65.0921 3.56966 65.4655 3.8161C65.7992 4.21538 65.7158 4.6777 65.7356 5.15531C65.7237 6.63016 65.7316 8.10309 65.7336 9.57794C65.7138 9.93328 65.7614 10.2619 65.5072 10.5561C65.2629 10.8904 64.8438 10.8083 64.4703 10.8369C61.4869 10.8293 58.5015 10.8312 55.5161 10.835C55.1923 10.8121 54.8646 10.8694 54.6203 10.6191C54.3442 10.3899 54.3958 10.0766 54.368 9.75752C54.364 8.15849 54.376 6.55947 54.364 4.96045C54.4018 4.48475 54.2647 3.9441 54.8169 3.70721Z" fill="black"/>
<path d="M100.503 8.81276C105.18 8.81276 109.865 8.82442 114.54 8.80499C114.874 8.82636 115.17 8.77585 115.417 9.04392C115.564 9.89086 115.411 10.7864 115.502 11.6411C115.544 11.9927 115.826 12.2763 116.182 12.3209C117.212 12.4084 118.258 12.2957 119.288 12.3637C119.677 12.3889 119.993 12.6609 119.977 13.061C120.001 14.1197 120.017 15.1978 119.968 16.2545C119.968 16.5576 119.724 16.779 119.428 16.8062C118.655 16.8645 117.872 16.8159 117.097 16.8334C116.641 16.8256 116.123 16.8664 115.682 16.7285C115.542 16.5381 115.467 16.3361 115.463 16.1224C115.403 15.1162 115.512 14.0964 115.423 13.0941C115.394 12.7716 115.166 12.5696 114.899 12.4122C114.395 12.3248 113.864 12.3656 113.354 12.3598C109.074 12.3676 104.787 12.3578 100.503 12.3656C100.189 12.3637 99.6651 12.3442 99.6097 11.9519C99.5228 11.1049 99.5465 10.2153 99.5919 9.36638C99.5781 8.87298 100.116 8.81276 100.503 8.81276Z" fill="white"/>
<path d="M100.691 17.4165C105.259 17.4243 109.827 17.4223 114.397 17.4165C114.832 17.4516 115.307 17.3541 115.454 17.8764C115.545 18.6678 115.504 19.4864 115.488 20.2835C115.486 20.5973 115.385 20.7435 115.135 20.9287C114.57 21.0339 113.965 20.9832 113.39 20.991C109.56 20.9871 105.727 20.9891 101.895 20.991C101.364 20.9891 100.828 21.0086 100.299 20.9793C100.075 20.9754 99.6367 20.8663 99.6208 20.5993C99.5058 19.9288 99.5712 19.2213 99.5573 18.5411C99.5911 18.1844 99.4919 17.7342 99.8488 17.5061C100.111 17.4243 100.416 17.4243 100.691 17.4165Z" fill="white"/>
</svg>
