<svg width="24" height="24" viewBox="0 0 24 24" fill="none" xmlns="http://www.w3.org/2000/svg">
<g id="Interface-Essential-Question-Help-Circle-1--Streamline-Pixel" clip-path="url(#clip0_500_1730)">
<path id="Vector" d="M22.86 6.855H21.7125V4.5675H20.5725V3.4275H19.425V2.2875H17.145V1.14H14.8575V0H9.1425V1.14H6.855V2.2875H4.5675V3.4275H3.4275V4.5675H2.2875V6.855H1.14V9.1425H0V14.8575H1.14V17.145H2.2875V19.425H3.4275V20.5725H4.5675V21.7125H6.855V22.86H9.1425V24H14.8575V22.86H17.145V21.7125H19.425V20.5725H20.5725V19.425H21.7125V17.145H22.86V14.8575H24V9.1425H22.86V6.855ZM14.8575 19.425H13.7175V20.5725H10.2825V19.425H9.1425V15.9975H10.2825V14.8575H13.7175V15.9975H14.8575V19.425ZM18.285 9.1425H17.145V10.2825H15.9975V11.43H14.8575V12.57H13.7175V13.7175H10.2825V11.43H11.43V10.2825H12.57V9.1425H13.7175V6.855H12.57V5.715H10.2825V6.855H9.1425V9.1425H5.715V5.715H6.855V4.5675H8.0025V3.4275H9.1425V2.2875H14.8575V3.4275H15.9975V4.5675H17.145V5.715H18.285V9.1425Z" fill="#92F7CB"/>
</g>
<defs>
<clipPath id="clip0_500_1730">
<rect width="24" height="24" fill="white"/>
</clipPath>
</defs>
</svg>
