<svg width="8" height="8" viewBox="0 0 8 8" fill="none" xmlns="http://www.w3.org/2000/svg">
<g clipPath="url(#clip0_11_1161)">
<path d="M7.62 2.285H7.2375V1.5225H6.8575V1.1425H6.475V0.7625H5.715V0.38H4.9525V0H3.0475V0.38H2.285V0.7625H1.5225V1.1425H1.1425V1.5225H0.7625V2.285H0.38V3.0475H0V4.9525H0.38V5.715H0.7625V6.475H1.1425V6.8575H1.5225V7.2375H2.285V7.62H3.0475V8H4.9525V7.62H5.715V7.2375H6.475V6.8575H6.8575V6.475H7.2375V5.715H7.62V4.9525H8V3.0475H7.62V2.285ZM3.0475 1.5225H3.4275V1.1425H4.5725V1.5225H4.9525V2.6675H4.5725V3.0475H3.4275V2.6675H3.0475V1.5225ZM5.715 6.475H5.3325V6.8575H3.4275V6.475H3.0475V3.81H3.4275V3.4275H4.5725V3.81H4.9525V5.715H5.3325V6.095H5.715V6.475Z" fill="white"/>
</g>
<defs>
<clipPath id="clip0_11_1161">
<rect width="8" height="8" fill="white"/>
</clipPath>
</defs>
</svg>
