<svg width="20" height="20" viewBox="0 0 20 20" fill="none" xmlns="http://www.w3.org/2000/svg">
<path d="M11.4281 3.80939H13.3344V4.75939H14.2844V5.71564H15.2406V7.62189H16.1906V12.3781H15.2406V14.2844H14.2844V15.2406H13.3344V16.1906H11.4281V17.1406H6.66562V18.0969H13.3344V17.1406H15.2406V16.1906H16.1906V15.2406H17.1469V14.2844H18.0969V12.3781H19.0469V7.62189H18.0969V5.71564H17.1469V4.75939H16.1906V3.80939H15.2406V2.85939H13.3344V1.90314H6.66562V2.85939H11.4281V3.80939Z" fill="white"/>
<path d="M14.2844 7.62189H15.2406V12.3781H14.2844V7.62189Z" fill="white"/>
<path d="M13.3344 12.3781H14.2844V13.3344H13.3344V12.3781Z" fill="white"/>
<path d="M13.3344 6.66565H14.2844V7.6219H13.3344V6.66565Z" fill="white"/>
<path d="M12.3844 13.3344H13.3344V14.2844H12.3844V13.3344Z" fill="white"/>
<path d="M12.3844 5.71564H13.3344V6.66564H12.3844V5.71564Z" fill="white"/>
<path d="M11.4281 14.2844H12.3844V15.2406H11.4281V14.2844Z" fill="white"/>
<path d="M11.4281 4.7594H12.3844V5.71565H11.4281V4.7594Z" fill="white"/>
<path d="M6.66562 15.2407H11.4281V16.1907H6.66562V15.2407Z" fill="white"/>
<path d="M10.4781 10.4781H11.4281V12.3781H10.4781V10.4781Z" fill="white"/>
<path d="M10.4781 7.62189H11.4281V8.57189H10.4781V7.62189Z" fill="white"/>
<path d="M6.66562 3.80939H11.4281V4.75939H6.66562V3.80939Z" fill="white"/>
<path d="M8.57187 13.3344V14.2844H9.52187V13.3344H10.4781V12.3781H9.52187V10.4781H10.4781V9.52189H9.52187V7.62189H10.4781V6.66564H9.52187V5.71564H8.57187V6.66564H7.62187V7.62189H8.57187V9.52189H7.62187V10.4781H8.57187V12.3781H7.62187V13.3344H8.57187Z" fill="white"/>
<path d="M6.66562 11.4282H7.62187V12.3782H6.66562V11.4282Z" fill="white"/>
<path d="M6.66562 7.62189H7.62187V9.52189H6.66562V7.62189Z" fill="white"/>
<path d="M4.76562 16.1906H6.66563V17.1406H4.76562V16.1906Z" fill="white"/>
<path d="M5.71562 14.2844H6.66562V15.2406H5.71562V14.2844Z" fill="white"/>
<path d="M5.71562 4.7594H6.66562V5.71565H5.71562V4.7594Z" fill="white"/>
<path d="M4.76562 2.85938H6.66563V3.80938H4.76562V2.85938Z" fill="white"/>
<path d="M4.76562 13.3344H5.71562V14.2844H4.76562V13.3344Z" fill="white"/>
<path d="M4.76562 5.71564H5.71562V6.66564H4.76562V5.71564Z" fill="white"/>
<path d="M3.80937 15.2407H4.76562V16.1907H3.80937V15.2407Z" fill="white"/>
<path d="M3.80937 12.3781H4.76562V13.3344H3.80937V12.3781Z" fill="white"/>
<path d="M3.80937 6.66565H4.76562V7.6219H3.80937V6.66565Z" fill="white"/>
<path d="M3.80937 3.80939H4.76562V4.75939H3.80937V3.80939Z" fill="white"/>
<path d="M2.85938 14.2844H3.80938V15.2406H2.85938V14.2844Z" fill="white"/>
<path d="M2.85938 7.62189H3.80938V12.3781H2.85938V7.62189Z" fill="white"/>
<path d="M2.85938 4.7594H3.80938V5.71565H2.85938V4.7594Z" fill="white"/>
<path d="M1.90312 12.3781H2.85937V14.2844H1.90312V12.3781Z" fill="white"/>
<path d="M1.90312 5.71564H2.85937V7.62189H1.90312V5.71564Z" fill="white"/>
<path d="M0.953125 7.62189H1.90313V12.3781H0.953125V7.62189Z" fill="white"/>
</svg>
