<svg width="40" height="40" viewBox="0 0 40 40" fill="none" xmlns="http://www.w3.org/2000/svg">
<path d="M33.7138 12.2825V14.0038H32.0038V15.7138H33.7138V17.435H35.4238V15.7138H37.145V14.0038H35.4238V12.2825H33.7138Z" fill="white"/>
<path d="M33.7137 31.1487H35.4237V32.8587H33.7137V31.1487Z" fill="white"/>
<path d="M30.2825 29.4275H28.5725V31.1488H30.2825V32.8588H32.0037V24.2863H30.2825V29.4275Z" fill="white"/>
<path d="M30.2825 7.14125H32.0038V8.8625H30.2825V7.14125Z" fill="white"/>
<path d="M28.5725 22.5762H30.2825V24.2862H28.5725V22.5762Z" fill="white"/>
<path d="M25.1412 7.14125V5.43125H23.4312V3.71H21.71V2H16.5687V3.71H14.8587V5.43125H13.1375V7.14125H11.4275V20.855H9.7175V22.5763H11.4275V27.7175H9.7175V29.4275H13.1375V10.5725H25.1412V29.4275H28.5725V27.7175H26.8625V22.5763H28.5725V20.855H26.8625V7.14125H25.1412Z" fill="white"/>
<path d="M21.71 32.8587H23.4312V36.29H21.71V32.8587Z" fill="white"/>
<path d="M13.1375 29.4275H25.1412V31.1488H13.1375V29.4275Z" fill="white"/>
<path d="M20 22.5762H21.71V24.2862H20V22.5762Z" fill="white"/>
<path d="M20 14.0038H21.71V15.7138H20V14.0038Z" fill="white"/>
<path d="M18.29 32.8587H20V38H18.29V32.8587Z" fill="white"/>
<path d="M18.29 24.2863H20V25.9963H18.29V24.2863Z" fill="white"/>
<path d="M18.29 20.855H20V22.5762H18.29V20.855Z" fill="white"/>
<path d="M18.29 15.7137H20V17.435H18.29V15.7137Z" fill="white"/>
<path d="M18.29 12.2825H20V14.0038H18.29V12.2825Z" fill="white"/>
<path d="M16.5687 22.5762H18.29V24.2862H16.5687V22.5762Z" fill="white"/>
<path d="M16.5687 14.0038H18.29V15.7138H16.5687V14.0038Z" fill="white"/>
<path d="M14.8587 32.8587H16.5687V36.29H14.8587V32.8587Z" fill="white"/>
<path d="M7.99625 22.5762H9.7175V24.2862H7.99625V22.5762Z" fill="white"/>
<path d="M7.99624 24.2863H6.28624V32.8588H7.99624V31.1488H9.71749V29.4275H7.99624V24.2863Z" fill="white"/>
<path d="M6.28624 7.14125H7.99624V8.8625H6.28624V7.14125Z" fill="white"/>
<path d="M4.57625 15.7137H6.28625V17.435H4.57625V15.7137Z" fill="white"/>
<path d="M4.57625 8.8625H6.28625V10.5725H4.57625V8.8625Z" fill="white"/>
<path d="M4.57625 5.43124H6.28625V7.14124H4.57625V5.43124Z" fill="white"/>
<path d="M2.855 34.5688H4.57625V36.29H2.855V34.5688Z" fill="white"/>
<path d="M2.855 7.14125H4.57625V8.8625H2.855V7.14125Z" fill="white"/>
</svg>
